<svg xmlns="http://www.w3.org/2000/svg" width="800" height="1000" viewBox="0 0 800 1000">
  <defs>
    <style>
      .title { font: bold 20px sans-serif; fill: #333; }
      .hour-label { font: 14px sans-serif; fill: #666; }
      .activity-text { font: 14px sans-serif; fill: white; }
      .grid-line { stroke: #e0e0e0; stroke-width: 1; }
    </style>
  </defs>
  
  <!-- 背景 -->
  <rect width="800" height="1000" fill="#fafafa"/>
  
  <!-- 标题 -->
  <text x="400" y="35" text-anchor="middle" class="title">📅 2026-02-07 时间日志</text>

  <text x="50" y="65" text-anchor="end" class="hour-label">06:00</text>
  <line x1="60" y1="60" x2="660" y2="60" class="grid-line"/>
  <text x="50" y="115" text-anchor="end" class="hour-label">07:00</text>
  <line x1="60" y1="110" x2="660" y2="110" class="grid-line"/>
  <text x="50" y="165" text-anchor="end" class="hour-label">08:00</text>
  <line x1="60" y1="160" x2="660" y2="160" class="grid-line"/>
  <text x="50" y="215" text-anchor="end" class="hour-label">09:00</text>
  <line x1="60" y1="210" x2="660" y2="210" class="grid-line"/>
  <text x="50" y="265" text-anchor="end" class="hour-label">10:00</text>
  <line x1="60" y1="260" x2="660" y2="260" class="grid-line"/>
  <text x="50" y="315" text-anchor="end" class="hour-label">11:00</text>
  <line x1="60" y1="310" x2="660" y2="310" class="grid-line"/>
  <text x="50" y="365" text-anchor="end" class="hour-label">12:00</text>
  <line x1="60" y1="360" x2="660" y2="360" class="grid-line"/>
  <text x="50" y="415" text-anchor="end" class="hour-label">13:00</text>
  <line x1="60" y1="410" x2="660" y2="410" class="grid-line"/>
  <text x="50" y="465" text-anchor="end" class="hour-label">14:00</text>
  <line x1="60" y1="460" x2="660" y2="460" class="grid-line"/>
  <text x="50" y="515" text-anchor="end" class="hour-label">15:00</text>
  <line x1="60" y1="510" x2="660" y2="510" class="grid-line"/>
  <text x="50" y="565" text-anchor="end" class="hour-label">16:00</text>
  <line x1="60" y1="560" x2="660" y2="560" class="grid-line"/>
  <text x="50" y="615" text-anchor="end" class="hour-label">17:00</text>
  <line x1="60" y1="610" x2="660" y2="610" class="grid-line"/>
  <text x="50" y="665" text-anchor="end" class="hour-label">18:00</text>
  <line x1="60" y1="660" x2="660" y2="660" class="grid-line"/>
  <text x="50" y="715" text-anchor="end" class="hour-label">19:00</text>
  <line x1="60" y1="710" x2="660" y2="710" class="grid-line"/>
  <text x="50" y="765" text-anchor="end" class="hour-label">20:00</text>
  <line x1="60" y1="760" x2="660" y2="760" class="grid-line"/>
  <text x="50" y="815" text-anchor="end" class="hour-label">21:00</text>
  <line x1="60" y1="810" x2="660" y2="810" class="grid-line"/>
  <text x="50" y="865" text-anchor="end" class="hour-label">22:00</text>
  <line x1="60" y1="860" x2="660" y2="860" class="grid-line"/>
  <text x="50" y="915" text-anchor="end" class="hour-label">23:00</text>
  <line x1="60" y1="910" x2="660" y2="910" class="grid-line"/>
  <text x="50" y="965" text-anchor="end" class="hour-label">24:00</text>
  <line x1="60" y1="960" x2="660" y2="960" class="grid-line"/>

  <!-- 改代码 -->
  <rect x="70" y="210.0" width="580" height="75.0" 
        rx="6" fill="#4CAF50" opacity="0.9"/>
  <text x="80" y="252.5" class="activity-text">09:00-10:30 改代码</text>


  <!-- 开会讨论 -->
  <rect x="70" y="285.0" width="580" height="50.0" 
        rx="6" fill="#2196F3" opacity="0.9"/>
  <text x="80" y="315.0" class="activity-text">10:30-11:30 开会讨论</text>


  <!-- 午餐休息 -->
  <rect x="70" y="360.0" width="580" height="50.0" 
        rx="6" fill="#FF9800" opacity="0.9"/>
  <text x="80" y="390.0" class="activity-text">12:00-13:00 午餐休息</text>


  <!-- 写文档 -->
  <rect x="70" y="460.0" width="580" height="100.0" 
        rx="6" fill="#9C27B0" opacity="0.9"/>
  <text x="80" y="515.0" class="activity-text">14:00-16:00 写文档</text>


  <!-- Code Review -->
  <rect x="70" y="585.0" width="580" height="50.0" 
        rx="6" fill="#E91E63" opacity="0.9"/>
  <text x="80" y="615.0" class="activity-text">16:30-17:30 Code Review</text>

</svg>