<svg xmlns="http://www.w3.org/2000/svg" width="800" height="930">
  <defs>
    <linearGradient id="bg" x1="0%" y1="0%" x2="0%" y2="100%">
      <stop offset="0%" style="stop-color:#667eea"/>
      <stop offset="100%" style="stop-color:#764ba2"/>
    </linearGradient>
    <linearGradient id="green" x1="0%" y1="0%" x2="100%" y2="0%">
      <stop offset="0%" style="stop-color:#11998e"/>
      <stop offset="100%" style="stop-color:#38ef7d"/>
    </linearGradient>
    <linearGradient id="blue" x1="0%" y1="0%" x2="100%" y2="0%">
      <stop offset="0%" style="stop-color:#4facfe"/>
      <stop offset="100%" style="stop-color:#00f2fe"/>
    </linearGradient>
    <linearGradient id="orange" x1="0%" y1="0%" x2="100%" y2="0%">
      <stop offset="0%" style="stop-color:#f093fb"/>
      <stop offset="100%" style="stop-color:#f5576c"/>
    </linearGradient>
    <linearGradient id="purple" x1="0%" y1="0%" x2="100%" y2="0%">
      <stop offset="0%" style="stop-color:#5f2c82"/>
      <stop offset="100%" style="stop-color:#49a09d"/>
    </linearGradient>
    <filter id="shadow" x="-20%" y="-20%" width="140%" height="140%">
      <feDropShadow dx="2" dy="3" stdDeviation="3" flood-opacity="0.3"/>
    </filter>
  </defs>
  
  <!-- 背景 -->
  <rect width="800" height="930" fill="#1a1a2e"/>
  
  <!-- 标题 -->
  <text x="400" y="45" text-anchor="middle" fill="white" font-family="Arial" font-size="24" font-weight="bold">
    📅 2026-02-07
  </text>
  <text x="400" y="70" text-anchor="middle" fill="#888" font-family="Arial" font-size="14">
    Daily Timeline
  </text>
  <text x="55" y="95" text-anchor="end" fill="#666" font-family="Arial" font-size="12">06:00</text>
  <line x1="70" y1="90" x2="720" y2="90" stroke="#333" stroke-width="1"/>
  <text x="55" y="140" text-anchor="end" fill="#666" font-family="Arial" font-size="12">07:00</text>
  <line x1="70" y1="135" x2="720" y2="135" stroke="#333" stroke-width="1"/>
  <text x="55" y="185" text-anchor="end" fill="#666" font-family="Arial" font-size="12">08:00</text>
  <line x1="70" y1="180" x2="720" y2="180" stroke="#333" stroke-width="1"/>
  <text x="55" y="230" text-anchor="end" fill="#666" font-family="Arial" font-size="12">09:00</text>
  <line x1="70" y1="225" x2="720" y2="225" stroke="#333" stroke-width="1"/>
  <text x="55" y="275" text-anchor="end" fill="#666" font-family="Arial" font-size="12">10:00</text>
  <line x1="70" y1="270" x2="720" y2="270" stroke="#333" stroke-width="1"/>
  <text x="55" y="320" text-anchor="end" fill="#666" font-family="Arial" font-size="12">11:00</text>
  <line x1="70" y1="315" x2="720" y2="315" stroke="#333" stroke-width="1"/>
  <text x="55" y="365" text-anchor="end" fill="#666" font-family="Arial" font-size="12">12:00</text>
  <line x1="70" y1="360" x2="720" y2="360" stroke="#333" stroke-width="1"/>
  <text x="55" y="410" text-anchor="end" fill="#666" font-family="Arial" font-size="12">13:00</text>
  <line x1="70" y1="405" x2="720" y2="405" stroke="#333" stroke-width="1"/>
  <text x="55" y="455" text-anchor="end" fill="#666" font-family="Arial" font-size="12">14:00</text>
  <line x1="70" y1="450" x2="720" y2="450" stroke="#333" stroke-width="1"/>
  <text x="55" y="500" text-anchor="end" fill="#666" font-family="Arial" font-size="12">15:00</text>
  <line x1="70" y1="495" x2="720" y2="495" stroke="#333" stroke-width="1"/>
  <text x="55" y="545" text-anchor="end" fill="#666" font-family="Arial" font-size="12">16:00</text>
  <line x1="70" y1="540" x2="720" y2="540" stroke="#333" stroke-width="1"/>
  <text x="55" y="590" text-anchor="end" fill="#666" font-family="Arial" font-size="12">17:00</text>
  <line x1="70" y1="585" x2="720" y2="585" stroke="#333" stroke-width="1"/>
  <text x="55" y="635" text-anchor="end" fill="#666" font-family="Arial" font-size="12">18:00</text>
  <line x1="70" y1="630" x2="720" y2="630" stroke="#333" stroke-width="1"/>
  <text x="55" y="680" text-anchor="end" fill="#666" font-family="Arial" font-size="12">19:00</text>
  <line x1="70" y1="675" x2="720" y2="675" stroke="#333" stroke-width="1"/>
  <text x="55" y="725" text-anchor="end" fill="#666" font-family="Arial" font-size="12">20:00</text>
  <line x1="70" y1="720" x2="720" y2="720" stroke="#333" stroke-width="1"/>
  <text x="55" y="770" text-anchor="end" fill="#666" font-family="Arial" font-size="12">21:00</text>
  <line x1="70" y1="765" x2="720" y2="765" stroke="#333" stroke-width="1"/>
  <text x="55" y="815" text-anchor="end" fill="#666" font-family="Arial" font-size="12">22:00</text>
  <line x1="70" y1="810" x2="720" y2="810" stroke="#333" stroke-width="1"/>
  <text x="55" y="860" text-anchor="end" fill="#666" font-family="Arial" font-size="12">23:00</text>
  <line x1="70" y1="855" x2="720" y2="855" stroke="#333" stroke-width="1"/>
  <text x="55" y="905" text-anchor="end" fill="#666" font-family="Arial" font-size="12">24:00</text>
  <line x1="70" y1="900" x2="720" y2="900" stroke="#333" stroke-width="1"/>

  <rect x="75" y="225.0" width="640" height="67.5" 
        rx="8" fill="url(#green)" filter="url(#shadow)"/>
  <text x="85" y="263.75" fill="white" font-family="Arial" font-size="13" font-weight="bold">
    09:00-10:30 改代码
  </text>

  <rect x="75" y="292.5" width="640" height="45.0" 
        rx="8" fill="url(#blue)" filter="url(#shadow)"/>
  <text x="85" y="320.0" fill="white" font-family="Arial" font-size="13" font-weight="bold">
    10:30-11:30 开会讨论
  </text>

  <rect x="75" y="360.0" width="640" height="45.0" 
        rx="8" fill="url(#orange)" filter="url(#shadow)"/>
  <text x="85" y="387.5" fill="white" font-family="Arial" font-size="13" font-weight="bold">
    12:00-13:00 午餐休息
  </text>

  <rect x="75" y="450.0" width="640" height="90.0" 
        rx="8" fill="url(#purple)" filter="url(#shadow)"/>
  <text x="85" y="500.0" fill="white" font-family="Arial" font-size="13" font-weight="bold">
    14:00-16:00 写文档
  </text>

  <rect x="75" y="562.5" width="640" height="45.0" 
        rx="8" fill="url(#green)" filter="url(#shadow)"/>
  <text x="85" y="590.0" fill="white" font-family="Arial" font-size="13" font-weight="bold">
    16:30-17:30 Code Review
  </text>
</svg>